<svg width="99" height="81" viewBox="0 0 99 81" fill="none" xmlns="http://www.w3.org/2000/svg">
<rect x="1.00006" y="48" width="32" height="32" rx="16" fill="black" stroke="white" stroke-width="1.2"/>
<g clip-path="url(#clip0_8700_547)">
<path fill-rule="evenodd" clip-rule="evenodd" d="M13.7018 56.048C12.8504 56.0869 12.2687 56.2217 11.759 56.4206C11.2333 56.624 10.7876 56.8983 10.3418 57.3429C9.89841 57.7874 9.62412 58.2343 9.42069 58.76C9.22184 59.2686 9.08698 59.8503 9.04812 60.7017C9.00926 61.5543 9.00012 61.8274 9.00012 64C9.00012 66.1726 9.00926 66.4457 9.04812 67.2983C9.08698 68.1497 9.22184 68.7314 9.42069 69.2411C9.62412 69.7669 9.89841 70.2126 10.343 70.6583C10.7876 71.1017 11.2344 71.376 11.7601 71.5806C12.2687 71.7783 12.8504 71.912 13.7018 71.952C14.5556 71.9909 14.8276 72 17.0001 72C19.1727 72 19.4458 71.9909 20.2984 71.952C21.1498 71.9131 21.7316 71.7783 22.2413 71.5806C22.767 71.3749 23.2127 71.1017 23.6584 70.6571C24.1018 70.2126 24.3761 69.7657 24.5807 69.24C24.7784 68.7314 24.9121 68.1497 24.9521 67.2983C24.991 66.4446 25.0001 66.1726 25.0001 64C25.0001 61.8274 24.991 61.5543 24.9521 60.7017C24.9133 59.8503 24.7784 59.2686 24.5807 58.7589C24.3796 58.2249 24.0645 57.7413 23.6573 57.3417C23.2127 56.8983 22.7658 56.624 22.2401 56.4206C21.7316 56.2217 21.1498 56.0869 20.2984 56.048C19.4458 56.0091 19.1727 56 17.0001 56C14.8276 56 14.5544 56.0091 13.7018 56.048ZM12.8916 64C12.8916 65.0897 13.3244 66.1347 14.0949 66.9052C14.8654 67.6757 15.9105 68.1086 17.0001 68.1086C18.0898 68.1086 19.1348 67.6757 19.9053 66.9052C20.6758 66.1347 21.1087 65.0897 21.1087 64C21.1087 62.9103 20.6758 61.8653 19.9053 61.0948C19.1348 60.3243 18.0898 59.8914 17.0001 59.8914C15.9105 59.8914 14.8654 60.3243 14.0949 61.0948C13.3244 61.8653 12.8916 62.9103 12.8916 64ZM17.0001 66.6663C16.293 66.6663 15.6148 66.3854 15.1148 65.8853C14.6147 65.3853 14.3338 64.7071 14.3338 64C14.3338 63.2929 14.6147 62.6147 15.1148 62.1147C15.6148 61.6146 16.293 61.3337 17.0001 61.3337C17.7073 61.3337 18.3854 61.6146 18.8855 62.1147C19.3855 62.6147 19.6664 63.2929 19.6664 64C19.6664 64.7071 19.3855 65.3853 18.8855 65.8853C18.3854 66.3854 17.7073 66.6663 17.0001 66.6663ZM22.6001 59.44C22.6001 59.5661 22.5753 59.6909 22.527 59.8074C22.4788 59.9238 22.4081 60.0297 22.3189 60.1188C22.2298 60.208 22.124 60.2787 22.0075 60.3269C21.891 60.3752 21.7662 60.4 21.6401 60.4C21.5141 60.4 21.3892 60.3752 21.2727 60.3269C21.1563 60.2787 21.0504 60.208 20.9613 60.1188C20.8722 60.0297 20.8014 59.9238 20.7532 59.8074C20.705 59.6909 20.6801 59.5661 20.6801 59.44C20.6801 59.1854 20.7813 58.9412 20.9613 58.7612C21.1413 58.5811 21.3855 58.48 21.6401 58.48C21.8947 58.48 22.1389 58.5811 22.3189 58.7612C22.499 58.9412 22.6001 59.1854 22.6001 59.44Z" fill="white"/>
</g>
<rect x="44.9998" y="48" width="32" height="32" rx="16" stroke="white" stroke-width="1.2"/>
<path d="M68 55C68.5304 55 69.0391 55.2107 69.4142 55.5858C69.7893 55.9609 70 56.4696 70 57V71C70 71.5304 69.7893 72.0391 69.4142 72.4142C69.0391 72.7893 68.5304 73 68 73H54C53.4696 73 52.9609 72.7893 52.5858 72.4142C52.2107 72.0391 52 71.5304 52 71V57C52 56.4696 52.2107 55.9609 52.5858 55.5858C52.9609 55.2107 53.4696 55 54 55H68ZM67.5 70.5V65.2C67.5 64.3354 67.1565 63.5062 66.5452 62.8948C65.9338 62.2835 65.1046 61.94 64.24 61.94C63.39 61.94 62.4 62.46 61.92 63.24V62.13H59.13V70.5H61.92V65.57C61.92 64.8 62.54 64.17 63.31 64.17C63.6813 64.17 64.0374 64.3175 64.2999 64.5801C64.5625 64.8426 64.71 65.1987 64.71 65.57V70.5H67.5ZM55.88 60.56C56.3256 60.56 56.7529 60.383 57.0679 60.0679C57.383 59.7529 57.56 59.3256 57.56 58.88C57.56 57.95 56.81 57.19 55.88 57.19C55.4318 57.19 55.0019 57.3681 54.685 57.685C54.3681 58.0019 54.19 58.4318 54.19 58.88C54.19 59.81 54.95 60.56 55.88 60.56ZM57.27 70.5V62.13H54.5V70.5H57.27Z" fill="white"/>
<path d="M4.98 6.66V9.6H10.82V12.26H4.98V18H2.3V4H10.82V6.66H4.98ZM23.0455 13.02C23.0455 16.12 21.1255 18.2 17.7655 18.2C14.4055 18.2 12.4855 16.12 12.4855 13.02V8.98C12.4855 5.88 14.4055 3.8 17.7655 3.8C21.1255 3.8 23.0455 5.88 23.0455 8.98V13.02ZM20.3655 13.02V8.98C20.3655 7.36 19.2255 6.46 17.7655 6.46C16.3055 6.46 15.1655 7.36 15.1655 8.98V13.02C15.1655 14.64 16.3055 15.54 17.7655 15.54C19.2255 15.54 20.3655 14.64 20.3655 13.02ZM27.9097 4V15.34H33.7497V18H25.2297V4H27.9097ZM37.7339 4V15.34H43.5739V18H35.0539V4H37.7339ZM54.8228 13.02C54.8228 16.12 52.9028 18.2 49.5428 18.2C46.1828 18.2 44.2628 16.12 44.2628 13.02V8.98C44.2628 5.88 46.1828 3.8 49.5428 3.8C52.9028 3.8 54.8228 5.88 54.8228 8.98V13.02ZM52.1428 13.02V8.98C52.1428 7.36 51.0028 6.46 49.5428 6.46C48.0828 6.46 46.9428 7.36 46.9428 8.98V13.02C46.9428 14.64 48.0828 15.54 49.5428 15.54C51.0028 15.54 52.1428 14.64 52.1428 13.02ZM65.027 18L63.227 9.88L61.427 18H58.527L55.947 4H58.647L60.267 13.48L61.927 6H64.527L66.187 13.48L67.807 4H70.507L67.927 18H65.027ZM83.9453 4H86.6253V13.02C86.6253 16.12 84.7053 18.2 81.3453 18.2C77.9853 18.2 76.0653 16.12 76.0653 13.02V4H78.7453V13.02C78.7453 14.64 79.8853 15.54 81.3453 15.54C82.8053 15.54 83.9453 14.64 83.9453 13.02V4ZM93.3383 18.2C90.2783 18.2 88.2983 16.36 88.1583 13.58H90.9183C91.0783 14.76 91.9983 15.54 93.3383 15.54C94.5183 15.54 95.3383 15.1 95.3383 14.14C95.3383 13.36 94.8783 12.92 93.8983 12.66L91.5383 12.02C89.3983 11.44 88.3383 9.94 88.3383 7.88C88.3383 5.08 90.5383 3.8 92.9783 3.8C95.7783 3.8 97.5183 5.44 97.8183 7.82H95.0583C94.8183 6.88 93.8383 6.46 92.9383 6.46C91.8183 6.46 91.0183 6.9 91.0183 7.88C91.0183 8.7 91.6583 9.06 92.4183 9.26L94.6983 9.88C96.8583 10.46 98.0183 11.78 98.0183 14.14C98.0183 16.66 96.3783 18.2 93.3383 18.2Z" fill="white"/>
<defs>
<clipPath id="clip0_8700_547">
<rect width="32" height="32" fill="white" transform="translate(1.00006 48)"/>
</clipPath>
</defs>
</svg>
